HIERARCHY
ROOT Hips
{
	OFFSET 0.000000 35.082581 0.000000
	CHANNELS 6 Xposition Yposition Zposition Xrotation Yrotation Zrotation 
	JOINT Spine
	{
		OFFSET 0.000000 6.876099 0.125700
		CHANNELS 3 Xrotation Yrotation Zrotation
		JOINT Spine1
		{
			OFFSET 0.000000 5.730043 0.104720
			CHANNELS 3 Xrotation Yrotation Zrotation
			JOINT Spine1_split
			{
				OFFSET 0.000000 5.730043 0.104720
				CHANNELS 3 Xrotation Yrotation Zrotation
				JOINT Spine2
				{
					OFFSET 0.000000 5.730043 0.104720
					CHANNELS 3 Xrotation Yrotation Zrotation
					JOINT Neck
					{
						OFFSET 0.000000 10.314075 0.188496
						CHANNELS 3 Xrotation Yrotation Zrotation
						JOINT Head
						{
							OFFSET 0.000000 7.643700 -2.377400
							CHANNELS 3 Xrotation Yrotation Zrotation
							JOINT HeadTop_End
							{
								OFFSET 0.000000 43.788605 -13.619600
								CHANNELS 3 Xrotation Yrotation Zrotation
								End Site
								{
									OFFSET 0.000000 0.000000 0.000000
								}
							}
						}
					}
					JOINT LeftShoulder
					{
						OFFSET 2.196100 4.412489 0.087492
						CHANNELS 3 Xrotation Yrotation Zrotation
						JOINT LeftShoulder_split
						{
							OFFSET 2.196100 4.412489 0.087492
							CHANNELS 3 Xrotation Yrotation Zrotation
							JOINT LeftArm
							{
								OFFSET 8.771219 -2.981674 -0.026999
								CHANNELS 3 Xrotation Yrotation Zrotation
								JOINT LeftForeArm
								{
									OFFSET 8.512804 0.000000 -0.000000
									CHANNELS 3 Xrotation Yrotation Zrotation
									JOINT LeftHand
									{
										OFFSET 18.484802 0.000000 -0.000000
										CHANNELS 3 Xrotation Yrotation Zrotation
										JOINT LeftHandThumb1
										{
											OFFSET 2.499420 -1.158070 2.653252
											CHANNELS 3 Xrotation Yrotation Zrotation
											JOINT LeftHandThumb2
											{
												OFFSET 2.370079 -1.368366 1.368366
												CHANNELS 3 Xrotation Yrotation Zrotation
												JOINT LeftHandThumb3
												{
													OFFSET 2.676727 -1.545410 1.545409
													CHANNELS 3 Xrotation Yrotation Zrotation
													JOINT LeftHandThumb4
													{
														OFFSET 1.692226 -0.977005 0.977007
														CHANNELS 3 Xrotation Yrotation Zrotation
														End Site
														{
															OFFSET 0.000000 0.000000 0.000000
														}
													}
												}
											}
										}
										JOINT LeftHandIndex1
										{
											OFFSET 7.924831 -0.457527 2.345128
											CHANNELS 3 Xrotation Yrotation Zrotation
											JOINT LeftHandIndex2
											{
												OFFSET 3.643303 0.000000 0.000000
												CHANNELS 3 Xrotation Yrotation Zrotation
												JOINT LeftHandIndex3
												{
													OFFSET 3.810799 0.000000 0.000000
													CHANNELS 3 Xrotation Yrotation Zrotation
													JOINT LeftHandIndex4
													{
														OFFSET 2.403702 0.000000 0.000000
														CHANNELS 3 Xrotation Yrotation Zrotation
														End Site
														{
															OFFSET 0.000000 0.000000 0.000000
														}
													}
												}
											}
										}
										JOINT LeftHandMiddle1
										{
											OFFSET 8.563995 0.000000 -0.000000
											CHANNELS 3 Xrotation Yrotation Zrotation
											JOINT LeftHandMiddle2
											{
												OFFSET 3.861618 0.000000 0.000000
												CHANNELS 3 Xrotation Yrotation Zrotation
												JOINT LeftHandMiddle3
												{
													OFFSET 3.701603 0.000000 0.000000
													CHANNELS 3 Xrotation Yrotation Zrotation
													JOINT LeftHandMiddle4
													{
														OFFSET 2.322544 0.000000 0.000000
														CHANNELS 3 Xrotation Yrotation Zrotation
														End Site
														{
															OFFSET 0.000000 0.000000 0.000000
														}
													}
												}
											}
										}
										JOINT LeftHandRing1
										{
											OFFSET 8.426460 -0.424637 -3.286992
											CHANNELS 3 Xrotation Yrotation Zrotation
											JOINT LeftHandRing2
											{
												OFFSET 3.126408 0.000000 0.000000
												CHANNELS 3 Xrotation Yrotation Zrotation
												JOINT LeftHandRing3
												{
													OFFSET 3.085026 0.000000 0.000000
													CHANNELS 3 Xrotation Yrotation Zrotation
													JOINT LeftHandRing4
													{
														OFFSET 1.644005 0.000000 0.000000
														CHANNELS 3 Xrotation Yrotation Zrotation
														End Site
														{
															OFFSET 0.000000 0.000000 0.000000
														}
													}
												}
											}
										}
									}
								}
							}
						}
					}
					JOINT RightShoulder
					{
						OFFSET -2.196100 4.412496 0.070690
						CHANNELS 3 Xrotation Yrotation Zrotation
						JOINT RightShoulder_split
						{
							OFFSET -2.196100 4.412496 0.070690
							CHANNELS 3 Xrotation Yrotation Zrotation
							JOINT RightArm
							{
								OFFSET -8.771282 -2.981682 -0.094208
								CHANNELS 3 Xrotation Yrotation Zrotation
								JOINT RightForeArm
								{
									OFFSET -8.494598 0.000000 0.000000
									CHANNELS 3 Xrotation Yrotation Zrotation
									JOINT RightHand
									{
										OFFSET -18.483803 0.000000 0.000001
										CHANNELS 3 Xrotation Yrotation Zrotation
										JOINT RightHandThumb1
										{
											OFFSET -2.527351 -1.008072 2.575253
											CHANNELS 3 Xrotation Yrotation Zrotation
											JOINT RightHandThumb2
											{
												OFFSET -2.321518 -1.340328 1.340329
												CHANNELS 3 Xrotation Yrotation Zrotation
												JOINT RightHandThumb3
												{
													OFFSET -2.657753 -1.534454 1.534455
													CHANNELS 3 Xrotation Yrotation Zrotation
													JOINT RightHandThumb4
													{
														OFFSET -1.807510 -1.043568 1.043567
														CHANNELS 3 Xrotation Yrotation Zrotation
														End Site
														{
															OFFSET 0.000000 0.000000 0.000000
														}
													}
												}
											}
										}
										JOINT RightHandIndex1
										{
											OFFSET -8.811420 0.015533 2.887987
											CHANNELS 3 Xrotation Yrotation Zrotation
											JOINT RightHandIndex2
											{
												OFFSET -3.537502 0.000000 0.000000
												CHANNELS 3 Xrotation Yrotation Zrotation
												JOINT RightHandIndex3
												{
													OFFSET -3.356201 0.000000 0.000000
													CHANNELS 3 Xrotation Yrotation Zrotation
													JOINT RightHandIndex4
													{
														OFFSET -1.933098 0.000000 0.000000
														CHANNELS 3 Xrotation Yrotation Zrotation
														End Site
														{
															OFFSET 0.000000 0.000000 0.000000
														}
													}
												}
											}
										}
										JOINT RightHandMiddle1
										{
											OFFSET -8.178135 0.000000 0.000000
											CHANNELS 3 Xrotation Yrotation Zrotation
											JOINT RightHandMiddle2
											{
												OFFSET -3.901302 0.000000 0.000000
												CHANNELS 3 Xrotation Yrotation Zrotation
												JOINT RightHandMiddle3
												{
													OFFSET -3.909599 0.000000 0.000000
													CHANNELS 3 Xrotation Yrotation Zrotation
													JOINT RightHandMiddle4
													{
														OFFSET -2.376003 0.000000 0.000000
														CHANNELS 3 Xrotation Yrotation Zrotation
														End Site
														{
															OFFSET 0.000000 0.000000 0.000000
														}
													}
												}
											}
										}
										JOINT RightHandRing1
										{
											OFFSET -7.559013 0.014137 -2.865403
											CHANNELS 3 Xrotation Yrotation Zrotation
											JOINT RightHandRing2
											{
												OFFSET -3.449306 0.000000 0.000000
												CHANNELS 3 Xrotation Yrotation Zrotation
												JOINT RightHandRing3
												{
													OFFSET -3.362106 0.000000 0.000000
													CHANNELS 3 Xrotation Yrotation Zrotation
													JOINT RightHandRing4
													{
														OFFSET -2.076401 0.000000 0.000000
														CHANNELS 3 Xrotation Yrotation Zrotation
														End Site
														{
															OFFSET 0.000000 0.000000 0.000000
														}
													}
												}
											}
										}
									}
								}
							}
						}
					}
				}
			}
		}
	}
	JOINT LeftUpLeg
	{
		OFFSET 10.205400 -3.823500 0.155100
		CHANNELS 3 Xrotation Yrotation Zrotation
		JOINT LeftLeg
		{
			OFFSET 0.708757 -12.982077 0.567790
			CHANNELS 3 Xrotation Yrotation Zrotation
			JOINT LeftFoot
			{
				OFFSET -0.708756 -10.717838 -2.184338
				CHANNELS 3 Xrotation Yrotation Zrotation
				JOINT LeftToeBase
				{
					OFFSET 0.108149 -7.191104 7.560241
					CHANNELS 3 Xrotation Yrotation Zrotation
					JOINT LeftToe_End
					{
						OFFSET 0.070230 0.081724 4.490308
						CHANNELS 3 Xrotation Yrotation Zrotation
						End Site
						{
							OFFSET 0.000000 0.000000 0.000000
						}
					}
				}
			}
		}
	}
	JOINT RightUpLeg
	{
		OFFSET -10.205400 -3.823500 0.005500
		CHANNELS 3 Xrotation Yrotation Zrotation
		JOINT RightLeg
		{
			OFFSET -0.708756 -12.982134 0.610632
			CHANNELS 3 Xrotation Yrotation Zrotation
			JOINT RightFoot
			{
				OFFSET 0.708754 -10.717769 -1.945823
				CHANNELS 3 Xrotation Yrotation Zrotation
				JOINT RightToeBase
				{
					OFFSET -0.108140 -7.191069 7.372968
					CHANNELS 3 Xrotation Yrotation Zrotation
					JOINT RightToe_End
					{
						OFFSET -0.070227 0.081735 4.479403
						CHANNELS 3 Xrotation Yrotation Zrotation
						End Site
						{
							OFFSET 0.000000 0.000000 0.000000
						}
					}
				}
			}
		}
	}
}
MOTION
Frames: 6
Frame Time: 0.016667
0.342475 54.754272 7.302973 5.970696 -20.744980 9.803450 34.429857 -5.045561 -10.316319 -1.919971 -0.704208 -1.068982 0.000000 0.000000 0.000000 -1.861962 -0.963991 -0.958729 -27.161330 7.980846 9.093856 17.861670 13.973908 -17.635106 -0.000001 0.000000 -0.000000 14.342941 -28.036231 31.312992 0.000000 0.000000 0.000000 -54.053315 10.158298 9.211026 -39.508696 -62.618334 -18.464476 0.677886 -3.694922 5.616535 -4.212063 -7.549107 8.222271 2.840607 18.398124 -2.239063 5.152344 25.924801 13.300417 -0.000006 0.000005 -0.000002 13.557849 -2.400535 2.442071 -0.158558 0.312396 -41.706884 -0.128887 0.311019 -40.965412 0.000001 0.000001 -0.000001 8.872544 -0.946688 -8.698852 0.333514 0.702995 -39.129775 0.379048 0.195426 -48.544791 -0.000001 0.000002 -0.000002 6.417764 2.640988 -21.662590 0.073906 0.361669 -38.094021 0.395902 0.821438 -44.654691 -0.000000 -0.000003 -0.000001 3.778682 7.559649 -24.581263 0.000000 0.000000 0.000000 -73.831442 -14.404394 -24.052241 -51.826188 60.836700 47.494923 9.141607 7.948714 -22.976022 -13.975085 13.836802 -0.527678 10.118335 -39.599453 -4.011409 6.542910 -35.207115 -15.255704 -0.000002 0.000003 -0.000000 11.271637 3.607148 -9.674709 -0.308894 -0.132936 59.230171 -0.170434 -0.110455 51.772882 -0.000000 0.000001 -0.000002 5.407493 -9.717466 -10.964782 0.477123 -0.644342 52.079885 0.534062 -0.126609 64.442978 -0.000001 -0.000001 -0.000004 4.999343 -19.199899 -5.805068 0.293146 -0.312906 63.639789 0.520289 -0.595196 70.565464 0.000000 -0.000001 -0.000001 -95.330596 -6.712695 24.919918 58.412454 -5.565579 -14.019341 14.317081 -8.119836 12.838006 -0.331958 0.927815 -0.306365 -0.000002 -0.000001 0.000001 -67.984629 19.610050 -7.034903 139.083402 11.935447 0.676177 -14.579324 1.209573 -4.043335 -0.332320 -0.927805 0.306444 0.000000 0.000001 0.000000 
0.372256 54.824139 9.363651 5.664115 -21.003156 9.502264 34.161543 -5.016548 -10.270777 -1.705511 -0.826082 -1.172774 0.000000 0.000000 0.000000 -1.718709 -1.101921 -0.901943 -26.754464 7.923675 9.300322 17.616752 14.580977 -17.741042 -0.000001 -0.000000 0.000001 13.329947 -28.376444 28.717349 0.000000 0.000000 0.000000 -55.448586 15.227879 10.991245 -68.123733 -71.308145 -47.693005 11.233195 4.906541 -1.251274 -4.209895 -7.549294 8.222477 2.840265 18.399220 -2.238933 5.151146 25.910900 13.294568 -0.000000 0.000003 0.000002 13.557226 -2.399540 2.530735 -0.158572 0.312340 -41.632281 -0.128879 0.310880 -40.861747 0.000000 0.000000 0.000001 8.872450 -0.946795 -8.589841 0.333087 0.702606 -39.040467 0.378436 0.195030 -48.423391 0.000002 -0.000000 -0.000003 6.418070 2.640015 -21.526844 0.073506 0.361151 -37.984919 0.395101 0.820807 -44.508931 -0.000001 0.000001 0.000001 3.694507 8.731535 -22.067293 0.000000 0.000000 0.000000 -77.217686 -16.836283 -27.351923 -55.432313 62.389796 51.618028 16.842403 16.542150 -19.530871 -13.852535 13.688639 -0.611927 9.965758 -39.155156 -3.888411 6.510281 -34.644430 -15.024726 -0.000000 0.000001 0.000002 11.276135 3.678403 -9.745164 -0.306507 -0.132133 58.914664 -0.169440 -0.110409 51.552485 -0.000002 0.000001 0.000003 5.433445 -9.621386 -11.002376 0.474247 -0.645753 51.742119 0.531782 -0.127867 64.128578 -0.000001 0.000002 0.000002 5.046117 -19.088477 -5.820359 0.290789 -0.313046 63.102315 0.518626 -0.598778 70.126618 -0.000001 0.000000 -0.000001 -92.004383 -5.174926 23.250253 54.539129 -5.215411 -13.489669 15.739148 -7.292184 12.881915 -0.332171 0.927324 -0.306085 0.000002 0.000000 -0.000000 -74.654132 18.676389 -4.377667 137.019674 11.175024 0.592824 -9.313654 -0.521137 1.367684 -0.332156 -0.927372 0.306106 0.000005 -0.000000 0.000001 
0.324892 54.718658 11.401722 5.336834 -21.333869 9.341499 33.316297 -5.013988 -10.048244 -1.359162 -0.996958 -1.581737 0.000000 0.000000 0.000000 -1.480010 -1.199183 -0.910619 -25.746977 7.766828 9.873795 17.083720 15.326022 -18.187477 0.000000 0.000000 -0.000000 11.862436 -27.977730 26.191849 0.000000 0.000000 0.000000 -55.866013 16.656019 11.417601 -90.273750 -72.340009 -70.563538 19.159067 8.441110 -6.769433 -4.203540 -7.550144 8.223040 2.839343 18.402336 -2.238585 5.147693 25.871674 13.277982 -0.000004 -0.000003 -0.000002 13.555470 -2.396737 2.784500 -0.158638 0.312153 -41.417946 -0.129041 0.310489 -40.562496 -0.000001 0.000002 0.000003 8.872086 -0.947099 -8.279671 0.331991 0.701597 -38.784830 0.376811 0.193749 -48.074317 0.000003 -0.000000 -0.000001 6.418729 2.637062 -21.143312 0.072417 0.359719 -37.674224 0.392915 0.819025 -44.091992 0.000000 -0.000001 0.000000 3.769985 11.074707 -19.093300 0.000000 0.000000 0.000000 -80.238699 -18.402097 -30.381535 -59.729335 63.810086 56.438864 22.161736 22.495008 -18.508141 -13.517977 13.281419 -0.839636 9.540009 -37.919530 -3.541115 6.405235 -33.062091 -14.379783 0.000002 -0.000006 0.000001 11.289819 3.880615 -9.945032 -0.299525 -0.129955 58.013844 -0.166480 -0.110356 50.920218 -0.000001 0.000002 0.000001 5.507139 -9.351069 -11.108393 0.465985 -0.649706 50.784099 0.525296 -0.131426 63.230831 -0.000000 0.000001 -0.000000 5.176614 -18.778290 -5.863775 0.284161 -0.313262 61.589974 0.513560 -0.608686 68.881761 -0.000004 -0.000001 -0.000002 -88.326442 -4.795791 21.335655 50.709821 -2.964152 -12.718358 17.552797 -8.002601 12.493628 -0.332153 0.925699 -0.305203 -0.000002 -0.000000 0.000000 -77.813709 17.268031 -2.910353 133.092848 10.151216 0.431375 -5.508419 -2.243671 6.662799 -0.332316 -0.925755 0.305256 -0.000003 0.000002 0.000000 
0.194946 54.459690 13.413809 4.981876 -21.752588 9.289567 31.982180 -4.961630 -9.666506 -0.846953 -1.225805 -2.282628 0.000000 0.000000 0.000000 -0.947541 -1.280964 -1.065717 -24.462896 7.530891 10.745749 16.255910 16.199317 -18.782568 -0.000002 -0.000001 0.000001 9.913579 -27.228090 23.284586 0.000000 0.000000 0.000000 -55.741041 16.364872 11.372916 -102.459053 -71.986000 -83.327891 24.322539 9.290158 -10.411715 -4.193089 -7.551389 8.223940 2.837653 18.407201 -2.238112 5.142384 25.810064 13.251862 -0.000003 -0.000001 -0.000002 13.552903 -2.392300 3.184925 -0.158799 0.311827 -41.077765 -0.129254 0.309970 -40.085475 0.000001 -0.000001 0.000000 8.871428 -0.947736 -7.793593 0.330247 0.699908 -38.381251 0.374178 0.191698 -47.520484 0.000004 0.000000 0.000001 6.419544 2.632751 -20.547441 0.070587 0.357293 -37.187265 0.389490 0.816121 -43.433798 -0.000002 0.000001 0.000001 3.679101 13.977367 -16.002233 0.000000 0.000000 0.000000 -82.618262 -19.392442 -32.930480 -63.588795 64.803797 60.717260 25.040886 25.957323 -18.710099 -13.022061 12.669919 -1.171258 8.888059 -36.040381 -2.998081 6.205627 -30.619902 -13.395415 -0.000005 0.000003 0.000003 11.314051 4.196117 -10.256875 -0.288780 -0.126880 56.596648 -0.161907 -0.110431 49.919394 -0.000002 0.000002 0.000001 5.623077 -8.933863 -11.273141 0.452882 -0.655359 49.288417 0.514957 -0.136643 61.818526 -0.000003 -0.000002 0.000001 5.376715 -18.306159 -5.932433 0.273750 -0.313142 59.252656 0.504966 -0.623697 66.938354 -0.000000 0.000003 0.000004 -84.385819 -5.390635 19.253361 46.477023 -0.267913 -11.782079 19.820157 -8.789808 11.643265 -0.332287 0.923148 -0.303764 0.000001 -0.000000 0.000001 -77.866629 15.617221 -2.249103 127.866250 9.994732 0.329444 -3.385164 -5.191438 11.523149 -0.332138 -0.923225 0.303737 -0.000000 -0.000000 -0.000001 
0.000942 54.065098 15.390469 4.594991 -22.292209 9.316571 30.123426 -4.725594 -9.117485 -0.381178 -1.474028 -3.165737 0.000000 0.000000 0.000000 0.072339 -1.341968 -1.344943 -23.223673 7.236253 11.847443 15.585272 17.092000 -19.533907 0.000002 0.000000 -0.000000 7.384980 -26.512820 19.097298 0.000000 0.000000 0.000000 -54.763634 13.972998 11.692076 -104.918836 -71.854560 -85.983899 27.065536 8.031801 -11.809872 -4.178711 -7.553072 8.225192 2.835206 18.413425 -2.237692 5.135294 25.729374 13.217721 -0.000003 -0.000001 -0.000001 13.549802 -2.386581 3.713546 -0.159001 0.311394 -40.625726 -0.129523 0.309174 -39.448526 0.000001 0.000000 0.000001 8.870484 -0.948838 -7.156740 0.327964 0.697565 -37.848404 0.370740 0.188967 -46.784467 -0.000001 0.000000 0.000000 6.420185 2.627497 -19.774900 0.068327 0.354289 -36.549059 0.385121 0.812251 -42.564735 -0.000002 -0.000000 -0.000000 3.475400 16.714446 -13.717870 0.000000 0.000000 0.000000 -83.978870 -20.223628 -34.367053 -65.879497 65.349187 63.252490 25.627923 27.165969 -19.344037 -12.415425 11.909163 -1.566971 8.054723 -33.666160 -2.286266 5.885520 -27.479444 -12.141738 -0.000000 -0.000003 0.000002 11.350885 4.607167 -10.663278 -0.274603 -0.123539 54.731931 -0.155976 -0.110668 48.593439 -0.000000 -0.000001 0.000001 5.776171 -8.397296 -11.487057 0.435518 -0.661898 47.337934 0.501177 -0.142851 59.960195 -0.000002 0.000001 -0.000000 5.632316 -17.708847 -6.023639 0.260232 -0.312178 56.240362 0.492486 -0.642344 64.403841 0.000000 0.000001 -0.000001 -80.279421 -6.742023 16.977333 41.178169 0.368987 -10.747426 22.620361 -7.172943 9.815936 -0.332337 0.919739 -0.301661 -0.000003 -0.000000 -0.000000 -75.853267 13.881945 -2.489438 121.788529 8.746791 0.106440 -2.363252 -6.913669 16.006444 -0.332298 -0.919673 0.301687 -0.000001 0.000003 -0.000005 
-0.273280 53.499329 17.303406 4.172529 -22.989852 9.386861 27.855902 -4.121279 -8.421920 0.127467 -1.788172 -4.189709 0.000000 0.000000 0.000000 1.369439 -1.443080 -1.885277 -22.350414 6.904206 13.109455 15.336732 17.888907 -20.138128 0.000001 -0.000000 0.000001 5.147559 -25.541235 15.539841 0.000000 0.000000 0.000000 -53.331323 11.122295 11.352302 -100.821693 -72.171289 -81.786666 28.052296 5.321926 -10.993652 -4.160522 -7.555282 8.226755 2.831890 18.420814 -2.237250 5.126766 25.632737 13.176885 -0.000002 -0.000003 -0.000000 13.546557 -2.379851 4.351930 -0.159247 0.310862 -40.075718 -0.129862 0.308209 -38.669348 0.000000 -0.000002 -0.000003 8.869264 -0.950656 -6.394267 0.325237 0.694697 -37.204662 0.366700 0.185606 -45.889135 -0.000003 0.000000 0.000002 6.420358 2.621695 -18.861100 0.065636 0.350549 -35.784980 0.379954 0.807475 -41.514699 0.000000 0.000000 0.000001 3.512204 19.269000 -12.925306 0.000000 0.000000 0.000000 -84.968878 -22.266265 -34.717742 -67.982628 65.843099 65.579399 24.567697 26.424791 -20.163825 -11.746955 11.054940 -1.989538 7.083487 -30.945613 -1.434285 5.424420 -23.803240 -10.680123 -0.000003 -0.000003 0.000001 11.402629 5.096127 -11.147019 -0.257868 -0.120600 52.488566 -0.149032 -0.111303 46.985694 0.000001 -0.000003 0.000001 5.961299 -7.768804 -11.740539 0.414444 -0.668206 45.015072 0.484326 -0.149381 57.724517 -0.000001 -0.000003 0.000001 5.929342 -17.023101 -6.134472 0.244212 -0.309838 52.703027 0.476009 -0.663121 61.385745 -0.000001 0.000001 0.000002 -75.978034 -8.843247 15.074984 35.595370 2.410846 -9.378264 26.051436 -6.966841 7.922247 -0.332525 0.915243 -0.299215 0.000001 -0.000001 -0.000000 -72.924837 11.613321 -3.284383 115.360775 7.387347 -0.142261 -1.928016 -8.396111 19.565275 -0.332309 -0.915362 0.299181 -0.000001 -0.000001 0.000003 
